<?xml version="1.0" standalone="no"?>
<!DOCTYPE svg PUBLIC "-//W3C//DTD SVG 20010904//EN"
 "http://www.w3.org/TR/2001/REC-SVG-20010904/DTD/svg10.dtd">
<svg version="1.0" xmlns="http://www.w3.org/2000/svg"
 width="1200.000000pt" height="648.000000pt" viewBox="0 0 1200.000000 648.000000"
 preserveAspectRatio="xMidYMid meet">

<g transform="translate(0.000000,648.000000) scale(0.100000,-0.100000)"
fill="#000000" stroke="none">
<path d="M5468 6419 c-22 -13 -23 -36 -2 -85 15 -35 194 -565 592 -1744 71
-212 134 -403 141 -426 14 -53 41 -76 90 -78 50 -1 75 21 97 86 9 27 173 366
366 754 340 685 351 705 371 691 27 -18 15 6 407 -797 186 -382 346 -707 354
-722 26 -47 92 -34 122 23 19 38 765 2256 767 2284 2 20 -5 20 -1643 22 -1129
2 -1650 0 -1662 -8z"/>
<path d="M5970 3780 c-25 -5 -77 -26 -117 -45 -191 -94 -307 -312 -273 -512
31 -184 159 -334 336 -393 55 -19 82 -22 172 -18 94 3 115 7 172 34 138 65
230 169 271 307 28 90 23 234 -10 320 -49 125 -165 237 -297 286 -65 25 -187
35 -254 21z"/>
<path d="M8105 3780 c-108 -23 -207 -80 -279 -162 -200 -229 -147 -582 111
-741 148 -92 366 -90 514 4 53 33 134 116 166 169 59 97 80 251 49 365 -65
246 -323 413 -561 365z"/>
<path d="M3779 3756 c-177 -62 -303 -214 -331 -398 -58 -381 346 -676 696
-508 194 92 306 314 267 525 -14 75 -67 187 -115 242 -123 141 -343 201 -517
139z"/>
<path d="M6914 3267 c-21 -18 -32 -47 -55 -138 -63 -247 -189 -427 -377 -538
-113 -67 -280 -111 -421 -111 -70 0 -142 -40 -194 -107 -144 -190 -214 -272
-326 -387 -273 -278 -557 -475 -906 -628 -107 -46 -128 -52 -190 -52 -84 0
-113 13 -240 112 -300 231 -438 553 -396 920 7 56 9 111 6 122 -7 22 -52 38
-131 47 -48 5 -52 4 -71 -23 -24 -34 -154 -307 -212 -448 -291 -699 -238
-1332 143 -1693 294 -280 733 -360 1211 -222 252 73 470 166 1045 449 454 223
632 302 835 373 334 117 517 159 890 207 285 36 452 76 620 146 301 126 525
392 591 699 49 233 -16 595 -107 595 -9 0 -62 -18 -116 -40 -144 -57 -234 -74
-368 -67 -60 3 -137 13 -170 22 -91 25 -215 88 -291 149 -133 107 -212 231
-267 420 -36 122 -53 155 -101 190 -25 19 -43 21 -201 23 -169 3 -175 2 -201
-20z"/>
</g>
</svg>
