<?xml version="1.0" standalone="no"?>
<!DOCTYPE svg PUBLIC "-//W3C//DTD SVG 20010904//EN"
 "http://www.w3.org/TR/2001/REC-SVG-20010904/DTD/svg10.dtd">
<svg version="1.0" xmlns="http://www.w3.org/2000/svg"
 width="512.000000pt" height="510.000000pt" viewBox="0 0 512.000000 510.000000"
 preserveAspectRatio="xMidYMid meet">

<g transform="translate(0.000000,510.000000) scale(0.100000,-0.100000)"
fill="#000000" stroke="none">
<path d="M2410 5093 c-1175 -74 -2147 -932 -2359 -2082 -151 -815 114 -1658
706 -2247 384 -382 849 -620 1403 -717 109 -19 162 -22 405 -22 301 1 392 11
625 69 618 157 1153 537 1512 1076 103 155 226 410 286 591 93 286 126 489
126 794 0 380 -67 697 -219 1037 -429 959 -1435 1567 -2485 1501z m520 -542
c290 -56 534 -155 762 -307 478 -319 779 -783 884 -1359 21 -120 30 -415 15
-541 -38 -326 -156 -649 -331 -911 -375 -561 -1017 -903 -1695 -903 -643 0
-1250 302 -1635 815 -594 791 -528 1892 155 2603 60 63 142 141 182 174 293
239 654 394 1039 447 38 5 170 8 294 6 176 -2 248 -7 330 -24z"/>
<path d="M2270 3653 l0 -528 50 -67 50 -68 194 0 194 0 51 70 51 70 0 525 0
525 -295 0 -295 0 0 -527z"/>
<path d="M1594 3919 c-32 -24 -60 -43 -62 -45 -6 -4 463 -643 472 -644 10 0
125 83 125 90 0 8 -460 635 -468 638 -4 1 -34 -16 -67 -39z"/>
<path d="M3319 3748 c-85 -117 -191 -262 -236 -324 l-81 -112 65 -46 c36 -26
67 -45 69 -43 25 24 463 634 461 641 -2 5 -30 28 -63 52 l-60 43 -155 -211z"/>
<path d="M3495 3195 l-500 -163 -47 -63 c-26 -35 -47 -71 -47 -79 0 -8 26 -94
57 -190 l58 -175 79 -26 80 -25 75 24 c384 121 917 295 923 301 6 6 -169 563
-176 560 -1 -1 -227 -74 -502 -164z"/>
<path d="M1037 3083 c-48 -148 -87 -272 -87 -278 0 -5 226 -83 501 -171 l500
-162 80 26 80 27 60 187 60 187 -47 63 c-25 35 -51 66 -57 69 -18 10 -978 319
-992 319 -6 0 -50 -120 -98 -267z"/>
<path d="M1334 2278 l-371 -121 25 -77 25 -77 116 38 c64 20 236 76 383 123
l266 87 -25 74 c-14 41 -30 75 -36 74 -7 0 -179 -55 -383 -121z"/>
<path d="M3371 2319 c-13 -39 -19 -74 -14 -78 20 -18 744 -244 752 -235 9 10
52 136 48 140 -4 5 -745 244 -754 244 -5 0 -19 -32 -32 -71z"/>
<path d="M2807 2252 l-157 -113 0 -87 0 -87 296 -405 c163 -223 302 -413 309
-424 13 -17 30 -6 247 150 128 93 234 173 236 177 3 8 -601 842 -617 851 -4 3
-41 16 -82 29 l-74 23 -158 -114z"/>
<path d="M2063 2337 l-61 -22 -289 -395 c-159 -217 -298 -409 -310 -426 l-22
-31 226 -164 c125 -90 232 -167 239 -172 9 -5 109 124 323 418 l311 425 0 83
0 83 -154 112 c-97 70 -163 112 -178 111 -13 0 -51 -10 -85 -22z"/>
<path d="M2480 1340 l0 -400 80 0 80 0 0 400 0 400 -80 0 -80 0 0 -400z"/>
</g>
</svg>
