<?xml version="1.0" standalone="no"?>
<!DOCTYPE svg PUBLIC "-//W3C//DTD SVG 20010904//EN"
 "http://www.w3.org/TR/2001/REC-SVG-20010904/DTD/svg10.dtd">
<svg version="1.0" xmlns="http://www.w3.org/2000/svg"
 width="524.000000pt" height="150.000000pt" viewBox="0 0 524.000000 150.000000"
 preserveAspectRatio="xMidYMid meet">
<metadata>
Created by potrace 1.16, written by Peter Selinger 2001-2019
</metadata>
<g transform="translate(0.000000,150.000000) scale(0.100000,-0.100000)"
fill="#000000" stroke="none">
<path d="M3566 1310 c-114 -63 -170 -143 -170 -242 1 -47 7 -67 38 -119 20
-34 40 -74 42 -89 5 -25 3 -27 -48 -38 -75 -17 -138 -57 -218 -136 -88 -88
-134 -171 -134 -244 -1 -46 3 -57 24 -74 30 -25 104 -22 165 7 61 29 165 140
207 220 36 71 64 174 54 201 -4 11 11 14 87 14 51 0 109 3 130 7 l38 6 -25
-38 c-41 -60 -32 -104 18 -91 22 5 42 21 124 100 l44 41 -7 -62 c-6 -58 -5
-64 19 -88 43 -43 101 -30 193 43 l52 42 -19 -42 c-18 -41 -18 -58 0 -58 4 0
21 21 36 47 29 50 111 143 125 143 5 0 9 -27 9 -61 0 -54 3 -64 29 -90 38 -38
88 -39 156 -3 53 29 152 101 175 128 7 10 27 26 43 38 l29 21 -7 -24 c-4 -13
-21 -44 -37 -68 -16 -24 -27 -46 -24 -48 2 -3 30 4 60 16 92 34 116 5 71 -88
-20 -42 -43 -68 -92 -106 -78 -61 -206 -192 -253 -260 -42 -62 -79 -150 -80
-191 0 -18 8 -38 19 -48 22 -20 42 -13 95 31 51 43 177 234 261 396 l63 122
118 75 c148 93 194 128 194 147 0 14 -3 13 -22 0 -105 -74 -269 -175 -265
-163 3 8 9 30 12 50 6 29 3 39 -20 61 -22 23 -32 26 -62 20 -32 -6 -35 -4 -28
12 26 66 28 75 12 90 -14 15 -19 14 -50 -10 -18 -14 -58 -49 -88 -79 -66 -64
-163 -118 -212 -118 -50 0 -67 28 -67 106 0 79 -17 97 -59 66 l-29 -21 11 29
c16 41 -1 51 -26 15 -40 -56 -163 -173 -206 -194 -23 -12 -52 -21 -64 -19 -20
3 -22 9 -22 73 0 39 3 82 8 98 6 21 4 29 -8 33 -10 4 -42 -19 -94 -69 -118
-113 -159 -127 -81 -28 46 58 83 86 105 77 16 -6 19 3 9 28 -9 24 -28 20 -78
-19 -52 -39 -121 -55 -248 -55 -76 0 -78 0 -84 28 -4 15 -24 59 -45 98 -61
111 -49 190 42 268 82 70 166 93 191 53 15 -24 7 -85 -17 -133 -31 -61 -32
-79 -6 -64 44 23 78 183 47 225 -21 29 -111 32 -160 5z m-81 -567 c-7 -60 -61
-173 -114 -241 -35 -45 -146 -113 -193 -119 -49 -7 -68 9 -68 56 0 109 176
304 313 346 70 22 70 22 62 -42z m1258 -265 c-138 -249 -249 -394 -285 -372
-26 16 23 130 101 235 38 52 211 219 226 219 2 0 -17 -37 -42 -82z"/>
<path d="M661 1289 c-95 -51 -288 -243 -367 -366 -133 -207 -164 -392 -73
-439 69 -35 182 7 268 102 69 76 95 134 96 215 l0 67 73 16 c40 9 98 16 128
16 40 0 55 4 52 13 -7 20 -101 19 -192 -2 -77 -18 -87 -19 -115 -5 -23 11 -35
12 -51 4 -41 -22 -19 -50 40 -50 84 0 32 -174 -85 -283 -36 -34 -116 -77 -144
-77 -52 0 -91 41 -91 95 0 38 38 141 86 235 110 215 422 496 488 441 15 -13 6
-75 -13 -94 -19 -19 -13 -39 8 -28 19 11 51 78 51 110 0 50 -91 67 -159 30z"/>
<path d="M1264 915 c-50 -76 -154 -145 -271 -182 -74 -23 -89 -24 -124 -14
-31 9 -39 17 -39 35 0 19 12 30 58 52 61 31 103 81 95 113 -18 68 -145 -27
-184 -137 -13 -39 6 -77 49 -93 55 -21 261 41 325 99 13 11 9 -1 -12 -34 -32
-53 -39 -84 -19 -84 6 0 64 52 129 115 103 101 139 129 139 110 0 -3 -18 -41
-40 -85 -46 -91 -48 -100 -20 -100 11 0 20 4 20 9 0 11 151 143 157 137 3 -2
-1 -20 -8 -39 -11 -30 -10 -39 5 -61 15 -23 23 -26 79 -26 69 0 138 27 195 74
41 35 40 27 -3 -44 -36 -59 -44 -90 -23 -90 6 0 64 52 129 115 103 101 139
129 139 110 0 -3 -18 -41 -40 -85 -46 -91 -48 -100 -20 -100 11 0 20 4 20 9 0
11 151 143 157 137 3 -2 -1 -20 -8 -39 -11 -30 -10 -39 5 -61 15 -23 23 -26
79 -26 69 0 138 27 195 74 39 33 40 29 7 -20 -40 -59 -31 -103 19 -90 22 5 42
21 124 100 l44 41 -7 -62 c-6 -58 -5 -64 20 -89 23 -23 32 -26 68 -21 25 3 62
21 96 45 59 42 158 148 148 159 -4 3 -40 -26 -81 -65 -80 -76 -144 -115 -179
-110 -20 3 -22 9 -22 73 0 39 3 82 8 98 6 21 4 29 -8 33 -10 4 -42 -19 -94
-69 -118 -113 -159 -127 -81 -28 46 58 83 86 105 77 17 -6 20 11 5 34 -8 13
-14 12 -46 -5 -20 -11 -42 -20 -48 -20 -6 0 -41 -21 -77 -47 -104 -75 -194
-103 -234 -74 -18 13 -19 18 -7 60 17 63 16 66 -16 66 -19 0 -46 -15 -81 -45
-29 -25 -55 -45 -57 -45 -2 0 5 18 16 40 26 51 27 90 1 90 -26 0 -86 -42 -160
-113 -68 -65 -67 -60 15 62 25 38 40 70 36 79 -4 13 -10 10 -26 -13 -80 -111
-282 -219 -347 -185 -22 12 -22 18 -3 103 6 25 4 27 -23 27 -20 0 -46 -14 -82
-45 -29 -25 -55 -45 -57 -45 -2 0 5 18 16 40 26 51 27 90 1 90 -26 0 -86 -42
-160 -113 -70 -68 -70 -65 -1 38 62 93 60 89 50 104 -6 10 -19 -2 -46 -44z"/>
</g>
</svg>
